<!-- icon666.com - MILLIONS vector ICONS FREE --><svg clip-rule="evenodd" fill-rule="evenodd" image-rendering="optimizeQuality" shape-rendering="geometricPrecision" text-rendering="geometricPrecision" viewBox="0 0 1707 1707" xmlns="http://www.w3.org/2000/svg"><g id="Layer_x0020_1"><g id="_613456648"><path d="m853 361c-5 0-10-2-14-6l-304-314c-8-8-8-21 0-28 8-8 21-8 28 0l305 315c7 7 7 20-1 28-4 4-9 5-14 5z" fill="#664631"></path><path d="m853 361c-5 0-10-1-14-5-8-8-8-21 0-28l304-315c8-8 21-8 29 0 7 7 8 20 0 28l-304 314c-4 4-9 6-15 6z" fill="#664631"></path><g fill="#664631"><path d="m311 1700c-4 0-7-1-10-3-10-5-13-18-7-27l103-179c5-9 17-13 27-7 10 5 13 18 7 27l-103 179c-3 6-10 10-17 10z"></path><path d="m1396 1700c-7 0-14-4-18-10l-103-179c-5-9-2-22 8-27 9-6 21-2 27 7l103 179c6 9 2 22-7 27-3 2-7 3-10 3z"></path></g><path d="m1551 1521h-1395c-86 0-156-70-156-155v-889c0-86 70-156 156-156h1395c86 0 156 70 156 156v889c0 85-70 155-156 155z" fill="#c46a36"></path><path d="m1102 1401h-863c-93 0-170-76-170-170v-620c0-93 77-170 170-170h863c94 0 170 77 170 170v620c0 94-76 170-170 170z" fill="#cf562c"></path><path d="m1102 1388h-863c-86 0-156-70-156-157v-620c0-86 70-156 156-156h863c86 0 157 70 157 156v620c0 87-71 157-157 157z" fill="#7fd8f4"></path><g fill="#d4926c"><path d="m1615 710h-254c-11 0-20-9-20-20v-139c0-11 9-20 20-20h254c11 0 20 9 20 20v139c0 11-9 20-20 20z"></path><path d="m1615 797h-254c-11 0-20-9-20-20s9-20 20-20h254c11 0 20 9 20 20s-9 20-20 20z"></path><path d="m1615 884h-254c-11 0-20-9-20-20s9-20 20-20h254c11 0 20 9 20 20s-9 20-20 20z"></path><path d="m1615 971h-254c-11 0-20-9-20-20s9-20 20-20h254c11 0 20 9 20 20s-9 20-20 20z"></path><path d="m1488 1311c-81 0-147-65-147-146s66-147 147-147 147 66 147 147-66 146-147 146z"></path></g><path d="m1488 1345c-11 0-20-9-20-20v-160c0-11 9-20 20-20s20 9 20 20v160c0 11-9 20-20 20z" fill="#c46a36"></path><path d="m1612 1087c-26-41-72-69-124-69-81 0-147 66-147 147 0 39 16 74 40 100-14-23-22-49-22-78 0-80 66-146 146-146 43 0 81 18 107 46z" fill="#d88361"></path><path d="m1635 551c0-11-9-20-20-20h-254c-11 0-20 9-20 20v139c0 10 8 19 18 20v-136c0-11 9-20 20-20h253 3z" fill="#d88361"></path><path d="m1215 503-1086 840c29 28 68 45 110 45h863c86 0 157-70 157-157v-620c0-42-17-80-44-108z" fill="#72c2dc"></path></g></g></svg>