<!-- icon666.com - MILLIONS vector ICONS FREE --><svg version="1.1" id="Capa_1" xmlns="http://www.w3.org/2000/svg" xmlns:xlink="http://www.w3.org/1999/xlink" x="0px" y="0px" viewBox="0 0 512 512" style="enable-background:new 0 0 512 512;" xml:space="preserve"><path style="fill:#385F82;" d="M292.262,181.413v-11.237c0-15.355,10.942-28.53,26.036-31.349l37.371-6.98 c19.62-3.664,37.746,11.39,37.746,31.349l0,0L292.262,181.413z"></path><path style="fill:#618BAA;" d="M504.5,338.232c0,40.3-32.67,72.97-72.97,72.97c-34.54,0-63.47-23.99-71.03-56.22 c-1.27-5.38-1.94-10.99-1.94-16.75c0-7.29,1.07-14.33,3.06-20.97c3.5-11.7,9.86-22.16,18.27-30.59 c11.42-11.44,26.62-19.11,43.57-20.96c2.65-0.3,5.34-0.45,8.07-0.45C471.83,265.262,504.5,297.932,504.5,338.232z"></path><g><path style="fill:#4E7693;" d="M423.46,265.712c-0.58,2.21-1.57,4.32-2.96,6.24l-40.26,55.77l-18.62-10.46 c3.5-11.7,9.86-22.16,18.27-30.59C391.31,275.232,406.51,267.562,423.46,265.712z"></path><path style="fill:#4E7693;" d="M452.27,336.987c0,13.85-11.26,25.12-25.09,25.12c-0.87,0-1.74-0.05-2.6-0.14l-64.08-6.99 c-1.27-5.38-1.94-10.99-1.94-16.75c0-20.13,8.15-38.35,21.33-51.56c17.21,8.23,36.72,17.52,58.04,27.63 C446.64,318.427,452.27,327.337,452.27,336.987z"></path><path style="fill:#4E7693;" d="M431.53,378.796c-22.368,0-40.566-18.198-40.566-40.566s18.198-40.566,40.566-40.566 s40.566,18.198,40.566,40.566S453.898,378.796,431.53,378.796z"></path></g><circle style="fill:#1F4C68;" cx="431.53" cy="338.23" r="27.566"></circle><path style="fill:#618BAA;" d="M153.44,338.232c0,17.74-6.33,33.99-16.85,46.64c-3.32,3.99-7.05,7.62-11.14,10.83 c-12.39,9.71-28.01,15.5-44.98,15.5c-40.3,0-72.97-32.67-72.97-72.97c0-19.41,7.58-37.04,19.94-50.12 c13.3-14.07,32.14-22.85,53.03-22.85c0.22,0,0.45,0,0.67,0.01C121.13,265.622,153.44,298.152,153.44,338.232z"></path><g><path style="fill:#4E7693;" d="M153.44,338.232c0,17.74-6.33,33.99-16.85,46.64c-3.32,3.99-7.05,7.62-11.14,10.83l0.61-6.53 c0.02-0.26,2.37-28.7-8.61-62.55c-7.74-23.91-19.89-44.4-36.31-61.35C121.13,265.622,153.44,298.152,153.44,338.232z"></path><path style="fill:#4E7693;" d="M136.59,384.867v-1.83c0-28.92-7.57-55.53-22.47-79.27l-10.31,33.41 c-2.91,9.41-11.57,15.45-20.94,15.45c-2.14,0-4.32-0.32-6.47-0.98c-11.56-3.57-18.05-15.84-14.48-27.4l11.16-36.14H27.44 c13.3-14.07,32.14-22.85,53.03-22.85c40.3,0,72.97,32.67,72.97,72.97C153.44,355.967,147.11,372.217,136.59,384.867z"></path><path style="fill:#4E7693;" d="M80.47,378.796c-22.368,0-40.566-18.198-40.566-40.566s18.198-40.566,40.566-40.566 s40.566,18.198,40.566,40.566S102.838,378.796,80.47,378.796z"></path></g><g><circle style="fill:#B1C3C9;" cx="80.47" cy="338.23" r="27.566"></circle><path style="fill:#B1C3C9;" d="M147.94,275.107H24.37c-4.33,0-7.3-4.35-5.75-8.4c3.82-9.96,14.26-18.51,28.58-24.07 c11.09-4.32,24.5-6.84,38.95-6.84c33.1,0,60.77,13.24,67.53,30.91C155.23,270.757,152.27,275.107,147.94,275.107z"></path></g><path style="fill:#99A9AD;" d="M147.94,275.107H91.13c-3.17-3.16-6.48-6.23-9.93-9.19c-11.49-9.87-23.49-17.66-34-23.28 c11.09-4.32,24.5-6.84,38.95-6.84c33.1,0,60.77,13.24,67.53,30.91C155.23,270.757,152.27,275.107,147.94,275.107z"></path><path style="fill:#B1C3C9;" d="M409.97,264.337l-19.7,27.29l-13.78,19.08l-38.62-21.71c0,0,4.54-7.67,14.12-15.73 c10.95-9.23,28.51-18.97,53.4-18.31C410.12,255.077,412.74,260.507,409.97,264.337z"></path><path style="fill:#99A9AD;" d="M390.27,291.627l-13.78,19.08l-38.62-21.71c0,0,4.54-7.67,14.12-15.73 C363.23,278.687,376.07,284.837,390.27,291.627z"></path><path style="fill:#B1C3C9;" d="M439.27,336.978c0,6.77-5.5,12.12-12.11,12.12c-0.41,0-0.83-0.02-1.25-0.06l-115.62-12.61h-0.03 l-115.83-12.63l95.64-62.89l3.42-2.25c0.06,0.18,1.43,0.97,3.85,2.24c3.32,1.75,8.62,4.4,15.26,7.68 c7.29,3.59,16.2,7.93,25.89,12.61c33.88,16.36,77.23,36.96,93.86,44.85C436.58,328.038,439.27,332.298,439.27,336.978z"></path><path style="fill:#99A9AD;" d="M301.69,314.958c1.24,7.64,4.1,14.81,8.57,21.47l-115.83-12.63l95.64-62.89l3.42-2.25 c0.06,0.18,1.43,0.97,3.85,2.24c3.32,1.75,8.62,4.4,15.26,7.68c7.29,3.59,16.2,7.93,25.89,12.61L301.69,314.958z"></path><path style="fill:#B1C3C9;" d="M325.28,368.608v16.26H184.03v-110.79l79.73-0.13l31.34-0.05c0,0-5.46,10.36-6.81,25.32 c-0.7,7.66-0.33,16.53,2.41,25.83C294.94,339.478,304.87,354.968,325.28,368.608z"></path><g><path style="fill:#99A9AD;" d="M290.7,325.048l-23.37,21.45c-2.35,2.15-5.45,3.28-8.63,3.15l-74.63-3.2l79.69-72.5l31.34-0.05 c0,0-5.46,10.36-6.81,25.32C287.59,306.878,287.96,315.748,290.7,325.048z"></path><path style="fill:#99A9AD;" d="M295.1,273.902c0,0-5.46,10.36-6.81,25.32l-7.43,4.63l-56.76,66.17l11.6,14.85h-51.67v-110.79 L295.1,273.902z"></path></g><rect x="85.101" y="247.823" transform="matrix(-0.9555 -0.295 0.295 -0.9555 96.9552 603.7531)" style="fill:#FCB043;" width="17.834" height="93.48"></rect><path style="fill:#B1C3C9;" d="M148.13,195.542H76v-53.27c8.24-0.09,22.55,0.58,36.26,5.21 C130.74,153.712,148.13,167.132,148.13,195.542z"></path><path style="fill:#99A9AD;" d="M140.49,195.542H76v-53.27c8.24-0.09,22.55,0.58,36.26,5.21l-8.87,6.66 c-4.64,3.48-7.41,9.03-7.41,14.83c0,3.05,0.76,6.08,2.2,8.75c0.46,0.87,0.98,1.68,1.57,2.46c2.46,3.23,5.84,5.54,9.77,6.65 L140.49,195.542z"></path><path style="fill:#1F4C68;" d="M154.84,223.661c-4.52,5.27-11.1,8.3-18.05,8.3c-4.12,0-8.15-1.07-11.69-3.08v-35.75 c0-0.64,0.01-1.28,0.04-1.91c0.28-7.04,2.07-13.81,5.14-19.91l21.98,18.83c4.82,4.14,7.74,9.9,8.23,16.23 S158.97,218.842,154.84,223.661z"></path><polygon style="fill:#FCB043;" points="340.35,221.847 338.565,263.471 258.841,336.64 216.173,334.81 "></polygon><path style="fill:#04A1EE;" d="M478.08,100.798l-112.81,103.57l-14.16,13l-101.61,93.29h-55.07v-66.38H125.1v-51.15 c0-0.64,0.01-1.28,0.04-1.91c0.28-7.04,2.07-13.81,5.14-19.91c4.83-9.66,12.85-17.65,23.03-22.43c23.65-11.1,46.25-18.21,65.2-22.76 c27.72-6.66,56.15,6.6,69.06,31.59c0.69,1.33,1.33,2.69,1.93,4.08l1.12,2.6l12.92-2.24l81.44-14.12v-34.73L478.08,100.798z"></path><path style="fill:#0084CE;" d="M365.27,204.368l-14.16,13l-101.61,93.29h-55.07v-66.38H125.1v-51.15c0-0.64,0.01-1.28,0.04-1.91 l38.11,10.72l24.08,6.76h66.98l15.14,15.14l23.95-19.47L365.27,204.368L365.27,204.368z"></path><polygon style="fill:#DEF2FC;" points="478.08,100.798 365.27,204.368 351.11,217.368 249.5,310.658 194.43,310.658 194.43,245.998 242.97,208.698 303.54,162.148 384.98,148.028 384.98,113.298 "></polygon><polygon style="fill:#CFE1E5;" points="365.27,204.368 351.11,217.368 249.5,310.658 194.43,310.658 194.43,245.998 242.97,208.698 254.31,208.698 269.45,223.838 293.4,204.368 "></polygon><polygon style="fill:#385F82;" points="351.11,217.368 249.5,310.658 194.43,310.658 194.43,244.278 177.43,244.278 177.43,221.698 248.93,221.698 268.55,241.318 298.02,217.368 "></polygon><path style="fill:#04A1EE;" d="M252.5,316.95l-45.2,52.69l16.2,20.73H139c0,0,3.97-42.8-17.31-88.47 c-13.18-28.26-36.02-57.63-75.48-78.62c-3.72-1.98-7.59-3.89-11.62-5.71l-11.19-17.9l-1.5-2.4c-2.58-4.13-2.66-9.35-0.18-13.55 c11.11-18.81,46.64-68.53,111.88-68.53l-38.02,28.55c-7.93,5.96-12.6,15.31-12.6,25.23c0,5.34,1.34,10.43,3.75,14.91 c0.77,1.45,1.66,2.83,2.65,4.14c4.06,5.34,9.81,9.4,16.61,11.32l53.74,15.11l26.81,7.53c8.59,2.42,14.86,8.75,17.63,16.54 c1.8,5.04,2.12,10.69,0.66,16.28c-1.77,6.77-0.43,14.56,7.67,22.66c12.32,12.32,27.85,16.29,40,17.25L252.5,316.95L252.5,316.95z"></path><path style="fill:#1F4C68;" d="M71.72,223.28H46.21c-3.72-1.98-7.59-3.89-11.62-5.71l-11.19-17.9h32L71.72,223.28z"></path><path style="fill:#DEF2FC;" d="M252.5,316.948l-45.2,52.69l16.2,20.73H139c0,0,3.97-42.8-17.31-88.47l82.48-63.38 c1.8,5.04,2.12,10.69,0.66,16.28c-1.77,6.77-0.43,14.56,7.67,22.66c12.32,12.32,27.85,16.29,40,17.25L252.5,316.948L252.5,316.948z"></path><path style="fill:#0084CE;" d="M159.73,214.452c-0.91,3.36-2.56,6.49-4.89,9.21c-4.52,5.27-11.1,8.3-18.05,8.3 c-5.67,0-11.16-2.03-15.46-5.72l-33.551-28.749c-4.048-3.469-4.518-9.562-1.05-13.611l0,0c0.77,1.45,1.66,2.83,2.65,4.14 c4.06,5.34,9.81,9.4,16.61,11.32L159.73,214.452z"></path><path style="fill:#FCB043;" d="M112.795,173.448l31.004,26.569c4.515,3.87,5.039,10.667,1.169,15.182l0,0 c-3.87,4.515-10.667,5.039-15.182,1.169L98.782,189.8L112.795,173.448z"></path><path d="M165.473,339.27c-3.084,0-5.975-1.918-7.067-4.99l-10.571-29.745c-1.387-3.903,0.652-8.191,4.555-9.579 c3.902-1.387,8.192,0.652,9.579,4.555l10.571,29.745c1.387,3.903-0.652,8.191-4.555,9.579 C167.154,339.13,166.306,339.27,165.473,339.27z"></path><path d="M186.085,337.701c-3.085,0-5.975-1.918-7.067-4.99l-10.571-29.745c-1.387-3.903,0.652-8.191,4.555-9.579 c3.905-1.386,8.192,0.652,9.579,4.555l10.571,29.745c1.387,3.903-0.652,8.191-4.555,9.579 C187.766,337.561,186.918,337.701,186.085,337.701z"></path><path d="M206.697,336.132c-3.085,0-5.975-1.917-7.067-4.99l-10.572-29.745c-1.387-3.903,0.652-8.191,4.555-9.579 c3.902-1.387,8.191,0.652,9.579,4.555l10.572,29.745c1.387,3.903-0.652,8.191-4.555,9.579 C208.379,335.992,207.531,336.132,206.697,336.132z"></path><path d="M163.882,185.079c-2.974,0-5.788-1.78-6.963-4.708l-2.008-5.004c-1.542-3.844,0.323-8.211,4.167-9.754 c3.842-1.542,8.21,0.323,9.754,4.167l2.008,5.004c1.543,3.844-0.323,8.211-4.167,9.754 C165.758,184.905,164.812,185.079,163.882,185.079z"></path><path d="M180.761,178.304c-2.974,0-5.788-1.78-6.963-4.708l-2.008-5.004c-1.542-3.844,0.323-8.211,4.167-9.754 c3.844-1.542,8.211,0.323,9.754,4.167l2.008,5.004c1.542,3.844-0.323,8.211-4.167,9.754 C182.637,178.13,181.691,178.304,180.761,178.304z"></path><path d="M197.641,171.529c-2.974,0-5.787-1.78-6.962-4.708l-2.009-5.004c-1.543-3.844,0.323-8.211,4.167-9.754 c3.845-1.545,8.211,0.322,9.754,4.166l2.009,5.004c1.543,3.844-0.323,8.211-4.167,9.754 C199.516,171.355,198.57,171.529,197.641,171.529z"></path><path d="M431.53,257.76c-4.417,0-8.788,0.369-13.094,1.074c-0.207-1.347-0.614-2.676-1.239-3.94 c-2.206-4.457-6.655-7.307-11.613-7.438c-32.778-0.872-53.883,14.595-65.13,26.348c-0.448-0.217-0.901-0.436-1.346-0.651 l4.529-4.156c1.465-1.345,2.336-3.217,2.422-5.205l1.41-32.895l15.236-13.989c3.051-2.801,3.254-7.545,0.453-10.597 c-2.802-3.052-7.546-3.254-10.597-0.452l-4.366,4.009H330.63l37.699-51.342l17.935-3.11c3.594-0.623,6.219-3.742,6.219-7.39V119.86 l62.954-8.453l-80.744,74.133c-3.051,2.801-3.254,7.545-0.452,10.597c1.479,1.611,3.499,2.428,5.526,2.428 c1.812,0,3.63-0.653,5.07-1.975l98.315-90.265c2.413-2.215,3.109-5.74,1.719-8.706s-4.542-4.691-7.789-4.252l-93.097,12.5 c-3.723,0.5-6.502,3.677-6.502,7.433v13.886c-7.185-3.183-15.26-4.193-23.189-2.713l-37.372,6.98 c-10.884,2.033-20.096,8.367-25.855,17.323c-15.725-24.668-45.392-36.897-74.307-29.949c-5.211,1.251-10.507,2.652-15.74,4.165 c-3.979,1.15-6.273,5.308-5.123,9.287s5.307,6.273,9.287,5.123c5.015-1.449,10.088-2.791,15.079-3.99 c24.262-5.828,49.196,5.579,60.65,27.749c0.587,1.133,1.16,2.344,1.696,3.586l1.115,2.599c0.061,0.143,0.131,0.28,0.201,0.417 l-59.242,45.527c-0.359,0.276-0.681,0.583-0.976,0.906H187.43c-0.247,0-0.491,0.014-0.733,0.037l-31.891-8.966 c-0.665-4.116-2.721-8.028-6.127-10.947l-14.494-12.421c0.707-2.488,1.634-4.912,2.803-7.236 c4.144-8.288,11.073-15.034,19.509-18.995c6.8-3.191,13.869-6.206,21.011-8.96c3.865-1.49,5.79-5.831,4.299-9.696 c-1.49-3.865-5.833-5.789-9.696-4.299c-7.471,2.881-14.868,6.036-21.989,9.377c-5.224,2.453-10.018,5.701-14.229,9.566 c-6.226-5.018-13.813-8.949-22.692-11.765l24.907-18.709c2.58-1.938,3.631-5.309,2.61-8.371c-1.021-3.061-3.887-5.126-7.114-5.126 c-29.831,0-57.061,9.711-80.936,28.863c-19.513,15.653-31.812,33.884-37.407,43.359c-3.913,6.627-3.805,14.805,0.281,21.341 l12.686,20.296c0.783,1.253,1.919,2.247,3.265,2.856c6.351,2.877,12.403,6.021,18.174,9.41 c-19.01,6.184-33.022,17.087-38.047,30.213c-1.615,4.218-1.053,8.954,1.504,12.67c2.169,3.154,5.546,5.21,9.276,5.755 C8.126,297.223,0,316.979,0,338.23c0,44.372,36.099,80.47,80.47,80.47c20.695,0,40.179-7.8,54.997-21.717 c1.077,0.576,2.286,0.893,3.533,0.893h84.5c2.868,0,5.484-1.635,6.741-4.212c0.205-0.42,0.352-0.855,0.474-1.296h94.561 c4.142,0,7.5-3.358,7.5-7.5v-16.257c0-2.504-1.25-4.843-3.332-6.235c-8.423-5.631-15.275-11.832-20.58-18.555l42.868,4.674 c5.059,39.818,39.006,70.205,79.798,70.205c44.372,0,80.47-36.099,80.47-80.47C512,293.859,475.901,257.76,431.53,257.76z M402.102,262.427l-21.978,30.436c-8.407-4.02-16.986-8.131-25.303-12.132C364.29,272.117,379.737,262.673,402.102,262.427z M319.675,146.2l37.372-6.98c5.927-1.105,11.986,0.038,17.051,3.083l-68.357,11.854C309.273,150.086,314.121,147.237,319.675,146.2z M306.642,169.224l40.361-6.999l-34.984,47.644H298.02c-1.723,0-3.393,0.593-4.73,1.68l-24.221,19.683l-14.836-14.836 c-1.407-1.407-3.314-2.197-5.303-2.197h-0.812L306.642,169.224z M245.823,229.2l17.423,17.423c1.457,1.457,3.377,2.197,5.305,2.197 c1.669,0,3.344-0.555,4.728-1.68l27.403-22.27h31.173l-72.58,66.637c-1.117-2.36-3.425-4.058-6.187-4.276 c-14.561-1.147-26.433-6.218-35.286-15.071c-6.932-6.932-6.581-12.14-5.714-15.455c2.577-9.855,0.83-19.698-4.098-27.505 L245.823,229.2L245.823,229.2z M331.84,245.247l-0.634,14.8l-75.147,68.967l-3.887-0.167l6.021-7.019 c1.166-1.359,1.807-3.091,1.807-4.883v-5.741L331.84,245.247z M138.918,205.713c1.368,1.172,1.527,3.239,0.355,4.607 c-0.767,0.894-1.726,1.093-2.23,1.132c-0.503,0.039-1.483-0.011-2.378-0.777l-25.309-21.689l4.252-4.962L138.918,205.713z M126.278,163.175c-0.973,1.543-1.88,3.13-2.698,4.766c-0.577,1.147-1.114,2.312-1.61,3.494l-4.295-3.681 c-3.145-2.696-7.88-2.331-10.575,0.814l-12.193,14.228c-2.794-3.961-4.423-8.754-4.423-13.828c0-6.579,2.747-12.902,7.461-17.407 C109.784,153.711,119.28,157.606,126.278,163.175z M27.732,192.171c-0.533-1.523-0.394-3.211,0.445-4.634 c9.703-16.431,34.897-51.223,78.842-61.76L91.08,137.75c-9.766,7.335-15.596,19.006-15.596,31.219 c0,15.854,9.704,30.08,24.09,36.062v21.276c0,4.142,3.358,7.5,7.5,7.5s7.5-3.358,7.5-7.5v-13.095l10.33,8.853 c3.439,2.947,7.666,4.389,11.874,4.389c5.152,0,10.276-2.163,13.884-6.373c0.09-0.105,0.163-0.217,0.25-0.323l33.601,9.447 c4.279,1.203,7.765,3.786,10.161,7.153l-70.365,54.07c-12.584-23.635-30.142-43.747-52.068-59.683 c2.581-0.181,4.907-1.667,6.12-3.981c1.295-2.47,1.113-5.454-0.473-7.748l-16.32-23.61c-1.4-2.026-3.707-3.235-6.169-3.235 L27.732,192.171L27.732,192.171z M69.503,343.766l17.04,5.26c0.724,0.223,1.469,0.333,2.212,0.333c1.21,0,2.414-0.293,3.503-0.868 c1.759-0.929,3.077-2.519,3.664-4.42l3.674-11.902c0.612,1.936,0.939,3.975,0.939,6.06c0,11.064-9.001,20.066-20.066,20.066 c-11.064,0-20.066-9.002-20.066-20.066c0-6.511,3.065-12.316,7.895-15.987l-3.749,12.145 C63.328,338.345,65.546,342.544,69.503,343.766z M81.094,331.645l16.959-54.941c0.703,0.945,1.402,1.894,2.084,2.856l-16.336,52.921 L81.094,331.645z M48.21,215.781c-0.059,0-0.116,0.008-0.175,0.009c-2.712-1.415-5.466-2.785-8.276-4.095l-2.827-4.523h14.535 l5.952,8.61H48.21V215.781z M66.487,245.029c7.28,5.501,13.982,11.498,20.093,17.989l-1.417,4.591H26.416 C31.623,257.229,46.942,248.57,66.487,245.029z M146.791,382.876c0.059-7.929-0.448-21.049-3.37-36.92 c-0.75-4.073-4.658-6.768-8.734-6.018c-4.074,0.75-6.768,4.66-6.018,8.734c2.272,12.341,2.954,22.927,3.087,30.255 C119.245,394.67,100.557,403.7,80.47,403.7c-36.1,0-65.47-29.37-65.47-65.47c0-22.847,11.549-43.569,30.932-55.62h34.601 l-6.53,21.154c-16.5,3.05-28.599,17.367-28.599,34.466c0,19.335,15.731,35.066,35.066,35.066c19.336,0,35.066-15.731,35.066-35.066 c0-9.34-3.676-18.157-10.185-24.702l5.258-17.035c4.085,7.621,7.632,15.673,10.621,24.16c1.086,3.083,3.981,5.011,7.074,5.011 c0.827,0,1.668-0.138,2.491-0.428c3.907-1.376,5.959-5.659,4.583-9.565c-1.366-3.88-2.859-7.679-4.455-11.409l66.613-51.187 c-1.87,7.319-1.674,18.357,9.66,29.691c9.813,9.813,22.78,16.17,37.803,18.594v12.81l-43.394,50.59 c-2.325,2.711-2.416,6.686-0.217,9.5l6.732,8.616L146.791,382.876L146.791,382.876z M317.776,372.54v4.828h-94.922l-5.864-7.504 l22.76-26.535l18.769,0.805c0.108,0.004,0.214,0.007,0.321,0.007c1.874,0,3.685-0.702,5.071-1.975l18.96-17.401 C286.748,339.656,296.269,357.129,317.776,372.54z M299.544,327.716c-1.857-4.761-3.096-9.72-3.673-14.881l31.35-28.771 c34.382,16.675,82.416,39.502,101.919,48.754c1.6,0.759,2.634,2.396,2.634,4.169c0,1.786-0.955,2.915-1.524,3.428 c-0.569,0.514-1.789,1.35-3.523,1.169L299.544,327.716z M435.569,319.264c-0.668-0.317-1.38-0.655-2.114-1.003 c10.164,0.973,18.141,9.554,18.141,19.968c0,11.064-9.002,20.066-20.066,20.066c-3.144,0-6.159-0.738-8.857-2.065l2.47,0.269 c0.669,0.069,1.338,0.103,2.005,0.103c4.828,0,9.532-1.788,13.148-5.051c4.116-3.713,6.477-9.022,6.477-14.566 C446.774,329.45,442.375,322.493,435.569,319.264z M431.53,403.7c-31.953,0-58.743-22.912-64.368-53.522l32.953,3.593 c5.85,11.83,17.958,19.525,31.415,19.525c19.335,0,35.066-15.731,35.066-35.066c0-19.335-15.731-35.066-35.066-35.066 c-6.666,0-13.04,1.839-18.608,5.341c-5.887-2.801-12.314-5.862-19.039-9.071l16.805-23.272c6.695-2.248,13.696-3.402,20.843-3.402 c36.101,0,65.47,29.37,65.47,65.47C497,374.33,467.63,403.7,431.53,403.7z"></path><path d="M233.666,250.242h-0.261c-4.142,0-7.5-3.358-7.5-7.5s3.358-7.5,7.5-7.5h0.261c4.142,0,7.5,3.358,7.5,7.5 S237.809,250.242,233.666,250.242z"></path><path d="M233.666,267.921h-0.261c-4.142,0-7.5-3.358-7.5-7.5s3.358-7.5,7.5-7.5h0.261c4.142,0,7.5,3.358,7.5,7.5 S237.809,267.921,233.666,267.921z"></path><path d="M374.495,330.564c-0.307,0-0.617-0.019-0.929-0.058l-54.819-6.774c-4.111-0.508-7.031-4.252-6.523-8.363 c0.508-4.11,4.244-7.031,8.363-6.523l54.819,6.774c4.111,0.508,7.031,4.253,6.523,8.363 C381.459,327.781,378.227,330.564,374.495,330.564z"></path></svg>